<?xml version="1.0" encoding="utf-8"?>
<!-- Generator: Adobe Illustrator 27.7.0, SVG Export Plug-In . SVG Version: 6.00 Build 0)  -->
<svg version="1.1" id="visual" xmlns="http://www.w3.org/2000/svg" xmlns:xlink="http://www.w3.org/1999/xlink" x="0px" y="0px"
	 viewBox="0 0 1920 1080" style="enable-background:new 0 0 1920 1080;" xml:space="preserve">
<style type="text/css">
	.st0{fill:#D0F0DD;}
	.st1{fill:#99EE99;}
</style>
<rect y="0" class="st0" width="1920" height="1080"/>
<g>
	
		<image style="overflow:visible;opacity:0.3;" width="1951" height="706" xlink:href="DB11ED05.png"  transform="matrix(1 0 0 1 -9.0009 -9.0009)">
	</image>
	<g>
		<path class="st1" d="M0,473l80,6c80,6,240,18,400,46.8c160,28.9,320,74.5,480,83s320-20.1,480-15.3s320,43.2,400,62.3l80,19.2V0
			h-80c-80,0-240,0-400,0s-320,0-480,0S640,0,480,0S160,0,80,0H0V473z"/>
	</g>
</g>
</svg>
