<?xml version="1.0" encoding="utf-8"?>
<!-- Generator: Adobe Illustrator 27.7.0, SVG Export Plug-In . SVG Version: 6.00 Build 0)  -->
<svg version="1.1" id="visual" xmlns="http://www.w3.org/2000/svg" xmlns:xlink="http://www.w3.org/1999/xlink" x="0px" y="0px"
	 viewBox="0 0 480 800" style="enable-background:new 0 0 480 800;" xml:space="preserve">
<style type="text/css">
	.st0{fill:#D0F0DD;}
	.st1{fill:#99EE99;}
</style>
<rect y="0" class="st0" width="480" height="800"/>
<g>
	
		<image style="overflow:visible;opacity:0.3;" width="511" height="503" xlink:href="DB47FF9B.png"  transform="matrix(1 0 0 1 -9.0009 -9.0009)">
	</image>
	<g>
		<path class="st1" d="M0,419l20,6.3c20,6.4,60,19,100,31.5s80,24.9,120,0.5c40-24.3,80-85.3,120-101c40-15.6,80,14,100,28.9
			l20,14.8V0h-20c-20,0-60,0-100,0s-80,0-120,0s-80,0-120,0S40,0,20,0H0V419z"/>
	</g>
</g>
</svg>
