<?xml version="1.0" encoding="UTF-8"?>
<svg id="Layer_2" data-name="Layer 2" xmlns="http://www.w3.org/2000/svg" viewBox="0 0 540 540">
  <defs>
    <style>
      .cls-1 {
        fill: #fff;
      }
    </style>
  </defs>
  <g id="Layer_3_copy_2" data-name="Layer 3 copy 2">
    <path class="cls-1" d="m0,175h0s157.5,0,157.5,0c9.66,0,17.5-7.84,17.5-17.5V40c0-22.09,17.91-40,40-40h0v157.5c0,10.77-2.97,20.85-8.14,29.47-4.88,8.15-11.74,15.01-19.89,19.89-8.62,5.17-18.7,8.14-29.47,8.14H40c-22.09,0-40-17.91-40-40Z"/>
    <path class="cls-1" d="m354.07,255c-.31.81-.62,1.62-.94,2.42-.18.47-.37.94-.56,1.41-.31.76-.63,1.52-.95,2.28-.18.44-.37.87-.57,1.31-.35.83-.72,1.66-1.09,2.48-.41.9-.82,1.79-1.25,2.68-.16.35-.33.71-.5,1.06-.38.79-.77,1.58-1.16,2.36-1.04,2.07-2.12,4.12-3.25,6.15-.56,1.01-1.13,2.02-1.72,3.02-.58,1-1.17,2-1.77,2.98-.6.99-1.21,1.98-1.84,2.95-.62.97-1.25,1.94-1.89,2.9-.59.9-1.2,1.79-1.81,2.67-.08.11-.15.22-.23.33-.63.9-1.27,1.79-1.91,2.68-.07.11-.15.22-.23.32-.6.83-1.21,1.64-1.83,2.45-.69.92-1.4,1.83-2.11,2.73-.72.91-1.44,1.8-2.17,2.69-.05.07-.1.14-.16.2-.8.97-1.61,1.94-2.44,2.89-.06.08-.13.16-.2.23-.71.82-1.43,1.63-2.16,2.44-.32.36-.64.73-.98,1.08-.55.61-1.12,1.22-1.68,1.82-.47.5-.94,1-1.43,1.49-1.38,1.44-2.78,2.84-4.22,4.22-.49.48-.99.95-1.49,1.43-.6.56-1.21,1.13-1.82,1.68-.35.34-.72.66-1.08.98-.81.73-1.62,1.45-2.44,2.16-.07.07-.15.14-.23.2-.95.83-1.92,1.64-2.89,2.44-.06.06-.13.11-.2.16-.89.73-1.78,1.45-2.69,2.17-.9.71-1.81,1.42-2.73,2.11-.81.62-1.62,1.23-2.45,1.83-.1.08-.21.16-.32.23-.89.64-1.78,1.28-2.68,1.91-.11.08-.22.15-.33.23-.88.61-1.77,1.22-2.67,1.81-.96.64-1.93,1.27-2.9,1.89-.97.63-1.96,1.24-2.95,1.84-.98.6-1.98,1.19-2.98,1.77-1,.59-2.01,1.16-3.02,1.72-2.03,1.13-4.08,2.21-6.15,3.25-.78.39-1.57.78-2.36,1.16-.35.17-.71.34-1.06.5-.89.43-1.78.84-2.68,1.25-.82.37-1.65.74-2.48,1.09-.44.2-.87.39-1.31.57-.76.32-1.52.64-2.28.95-.47.19-.94.38-1.41.56-.95.38-1.9.74-2.86,1.1-.6.23-1.21.46-1.82.67-2.43.89-4.9,1.72-7.38,2.49-.82.25-1.63.5-2.45.74-.53.16-1.07.31-1.6.46-.61.18-1.23.35-1.84.51-.68.19-1.36.36-2.03.54-2.85.73-5.72,1.39-8.62,1.98-.56.12-1.12.23-1.68.33-1.45.28-2.91.54-4.37.78-.8.13-1.61.26-2.42.38-.15.03-.29.05-.44.07-.77.11-1.54.22-2.31.32-.86.12-1.73.23-2.6.33-2.3.27-4.61.5-6.94.67-.54.05-1.09.08-1.64.11-.47.04-.95.07-1.42.09-.81.06-1.62.1-2.43.13-.6.03-1.2.05-1.8.07-.46.02-.92.03-1.39.04-.61.02-1.23.03-1.85.04-.84.01-1.68.02-2.53.02H40c-22.09,0-40-17.91-40-40h0s195,0,195,0c7.44,0,14.74-.63,21.84-1.84,17.27-2.93,33.38-9.28,47.63-18.33,16.25-10.3,30.06-24.11,40.36-40.36,12.09-6.06,25.74-9.47,40.17-9.47h9.07Z"/>
    <path class="cls-1" d="m365,0v135h-20c-6.75,0-13.42.32-20,.95V40c0-22.09,17.91-40,40-40h0Z"/>
    <path class="cls-1" d="m540,215h0s-195,0-195,0c-7.44,0-14.74.63-21.84,1.84-17.27,2.93-33.38,9.28-47.63,18.33-16.25,10.3-30.06,24.11-40.36,40.36-12.09,6.06-25.74,9.47-40.17,9.47h-9.07c.31-.81.62-1.62.94-2.42.18-.47.37-.94.56-1.41.31-.76.63-1.52.95-2.28.18-.44.37-.87.57-1.31.35-.83.72-1.66,1.09-2.48.41-.9.82-1.79,1.25-2.68.16-.35.33-.71.5-1.06.38-.79.77-1.58,1.16-2.36,1.04-2.07,2.12-4.12,3.25-6.15.56-1.01,1.13-2.02,1.72-3.02.58-1,1.17-2,1.77-2.98.6-.99,1.21-1.98,1.84-2.95.62-.97,1.25-1.94,1.89-2.9.59-.9,1.2-1.79,1.81-2.67.08-.11.15-.22.23-.33.63-.9,1.27-1.79,1.91-2.68.07-.11.15-.22.23-.32.6-.83,1.21-1.64,1.83-2.45.69-.92,1.4-1.83,2.11-2.73.72-.91,1.44-1.8,2.17-2.69.05-.07.1-.14.16-.2.8-.97,1.61-1.94,2.44-2.89.06-.08.13-.16.2-.23.71-.82,1.43-1.63,2.16-2.44.32-.36.64-.73.98-1.08.55-.61,1.12-1.22,1.68-1.82.48-.5.95-1,1.43-1.49,1.38-1.44,2.78-2.84,4.22-4.22.49-.49.99-.96,1.49-1.43.6-.56,1.21-1.13,1.82-1.68.35-.34.72-.66,1.08-.98.81-.73,1.62-1.45,2.44-2.16.07-.07.15-.14.23-.2.95-.83,1.92-1.64,2.89-2.44.06-.06.13-.11.2-.16.89-.73,1.78-1.45,2.69-2.17.9-.71,1.81-1.42,2.73-2.11.81-.62,1.62-1.23,2.45-1.83.1-.08.21-.16.32-.23.89-.64,1.78-1.28,2.68-1.91.11-.08.22-.15.33-.23.88-.61,1.77-1.22,2.67-1.81.96-.64,1.93-1.27,2.9-1.89.97-.63,1.96-1.24,2.95-1.84.98-.6,1.98-1.19,2.98-1.77,1-.59,2.01-1.16,3.02-1.72,2.03-1.13,4.08-2.21,6.15-3.25.78-.39,1.57-.78,2.36-1.16.35-.17.71-.34,1.06-.5.89-.43,1.78-.84,2.68-1.25.82-.37,1.65-.74,2.48-1.09.44-.2.87-.39,1.31-.57.76-.32,1.52-.64,2.28-.95.47-.19.94-.38,1.41-.56.95-.38,1.9-.74,2.86-1.1.6-.23,1.21-.46,1.82-.67.53-.2,1.06-.39,1.6-.57.49-.18.99-.35,1.48-.51,1.43-.49,2.86-.96,4.3-1.41.82-.25,1.63-.5,2.45-.74.53-.16,1.07-.31,1.6-.46.61-.18,1.23-.35,1.84-.51.68-.19,1.36-.36,2.03-.54,2.85-.73,5.72-1.39,8.62-1.98.56-.12,1.12-.23,1.68-.33,1.45-.28,2.91-.54,4.37-.78.8-.13,1.61-.26,2.42-.38.15-.03.29-.05.44-.07.77-.11,1.54-.22,2.31-.32.86-.12,1.73-.23,2.6-.33,2.3-.27,4.61-.5,6.94-.67.54-.04,1.09-.08,1.64-.11.47-.04.95-.07,1.42-.09.81-.06,1.62-.1,2.43-.13.6-.03,1.2-.05,1.8-.07.46-.02.93-.03,1.39-.04.61-.02,1.23-.03,1.85-.04.84,0,1.68-.02,2.53-.02h155c22.09,0,40,17.91,40,40Z"/>
    <path class="cls-1" d="m195,405c6.75,0,13.42-.32,20-.95v95.95c0,22.09-17.91,40-40,40h0v-135h20Z"/>
    <path class="cls-1" d="m540,365h0s-157.5,0-157.5,0c-9.66,0-17.5,7.84-17.5,17.5v117.5c0,22.09-17.91,40-40,40h0v-157.5c0-10.77,2.97-20.85,8.14-29.47,4.88-8.15,11.74-15.01,19.89-19.89,8.62-5.17,18.7-8.14,29.47-8.14h117.5c22.09,0,40,17.91,40,40Z"/>
  </g>
</svg>